<svg width="326.25" height="110.55" viewBox="0 0 326.25 110.55" xmlns="http://www.w3.org/2000/svg"><g id="svgGroup" stroke-linecap="round" fill-rule="evenodd" font-size="9pt" stroke="#00b5ad" stroke-width="0.25mm" fill="#00b5ad" style="stroke:#00b5ad;stroke-width:0.25mm;fill:#00b5ad"><path d="M 32.85 22.95 L 33 21.9 Q 40.95 17.25 52.8 17.25 A 56.277 56.277 0 0 1 53.088 17.251 Q 57.498 17.273 59.678 17.993 A 7.657 7.657 0 0 1 59.7 18 Q 60.443 19.487 60.45 24.142 A 58.922 58.922 0 0 1 60.45 24.225 Q 60.45 28.95 53.25 58.05 Q 56.55 59.4 60.75 59.4 A 20.604 20.604 0 0 0 61.198 59.395 Q 67.854 59.251 72.281 54.78 A 17.34 17.34 0 0 0 72.6 54.45 A 31.294 31.294 0 0 0 72.887 54.14 Q 76.857 49.798 78.371 44.829 A 21.27 21.27 0 0 0 78.675 43.725 A 46.027 46.027 0 0 0 78.848 43 Q 80.1 37.547 80.1 31.5 A 43.489 43.489 0 0 0 80.098 31.131 Q 80.013 21.018 75.203 15.74 A 15.055 15.055 0 0 0 73.725 14.325 Q 67.438 9.074 53.492 9.001 A 75.4 75.4 0 0 0 53.1 9 Q 34.912 9 22.748 16.171 A 43.015 43.015 0 0 0 22.2 16.5 A 57.965 57.965 0 0 0 21.819 16.735 Q 11.104 23.382 10.022 30.616 A 11.024 11.024 0 0 0 9.9 32.25 A 10.705 10.705 0 0 0 9.905 32.576 Q 10.024 36.494 13.034 39 A 10.538 10.538 0 0 0 13.125 39.075 A 23.011 23.011 0 0 0 13.428 39.317 Q 16.339 41.606 19.433 42.499 A 14.807 14.807 0 0 0 19.8 42.6 Q 19.22 47.822 16.255 53.325 A 40.193 40.193 0 0 1 16.05 53.7 Q 10.35 52.95 5.175 47.7 A 17.899 17.899 0 0 1 4.701 47.201 Q 0.118 42.179 0.003 34.308 A 27.862 27.862 0 0 1 0 33.9 A 27.071 27.071 0 0 1 0.007 33.305 Q 0.33 18.602 16.689 9.526 A 55.744 55.744 0 0 1 17.1 9.3 A 69.777 69.777 0 0 1 19.123 8.242 Q 35.414 0.061 56.682 0 A 111.534 111.534 0 0 1 57 0 Q 79.644 0 91.339 7.472 A 31.471 31.471 0 0 1 91.5 7.575 Q 103.046 15.05 103.198 30.633 A 42.772 42.772 0 0 1 103.2 31.05 A 51.623 51.623 0 0 1 103.196 31.699 Q 102.94 52.066 86.55 62.55 Q 77.63 68.348 65.173 68.4 A 54.086 54.086 0 0 1 64.95 68.4 Q 57.372 68.4 51.839 66.219 A 25.126 25.126 0 0 1 51.3 66 Q 45.074 91.347 43.683 106.734 A 120.415 120.415 0 0 0 43.65 107.1 Q 34.902 109.62 24.25 109.65 A 91.2 91.2 0 0 1 24 109.65 Q 21.562 109.65 20.358 109.239 A 3.882 3.882 0 0 1 20.25 109.2 A 34.552 34.552 0 0 1 20.262 109.051 Q 21.054 99.596 28.597 70.393 A 1150.942 1150.942 0 0 1 28.725 69.9 Q 36.422 40.157 36.45 31.115 A 21.274 21.274 0 0 0 36.45 31.05 Q 36.45 28.264 35.805 26.911 A 3.66 3.66 0 0 0 35.775 26.85 Q 35.108 25.515 32.901 23.008 A 59.503 59.503 0 0 0 32.85 22.95 Z M 129 42.3 L 134.4 42.6 A 11.241 11.241 0 0 1 136.138 41.859 Q 137.929 41.268 139.974 41.251 A 14.616 14.616 0 0 1 140.1 41.25 A 12.287 12.287 0 0 1 140.456 41.255 Q 151.85 41.585 151.949 63.217 A 83.213 83.213 0 0 1 151.95 63.6 Q 156.355 63.385 160.836 62.632 A 80.117 80.117 0 0 0 161.547 62.509 A 19.218 19.218 0 0 1 161.541 62.491 Q 160.65 60.081 160.65 58.05 A 16.365 16.365 0 0 1 160.655 57.642 Q 160.833 50.499 167.287 46.494 A 19.442 19.442 0 0 1 167.4 46.425 A 25.32 25.32 0 0 1 168.581 45.746 Q 174.969 42.3 183.675 42.3 A 52.831 52.831 0 0 1 184.119 42.302 Q 193.313 42.379 198 45.675 A 14.285 14.285 0 0 1 198.295 45.888 Q 202.8 49.23 202.8 54.825 Q 202.8 60.569 193.749 70.69 A 96.903 96.903 0 0 1 193.65 70.8 Q 194.657 71.807 196.215 73.434 A 338.083 338.083 0 0 1 196.35 73.575 Q 197.985 75.285 200.652 80.015 A 101.918 101.918 0 0 1 200.7 80.1 A 29 29 0 0 1 200.866 80.399 Q 203.268 84.79 203.393 88.675 A 13.214 13.214 0 0 1 203.4 89.1 A 21.14 21.14 0 0 1 203.394 89.614 Q 203.177 98.523 195.412 104.303 A 27.089 27.089 0 0 1 195.075 104.55 A 33.519 33.519 0 0 1 194.421 105.01 Q 186.334 110.55 176.1 110.55 A 49.678 49.678 0 0 1 175.603 110.548 Q 165.706 110.449 159.706 106.387 A 19.055 19.055 0 0 1 159.225 106.05 Q 153.117 101.634 153.002 98.23 A 3.859 3.859 0 0 1 153 98.1 A 1.781 1.781 0 0 1 153.005 97.97 Q 153.159 95.857 158.25 91.275 A 60.176 60.176 0 0 1 158.495 91.056 Q 163.584 86.525 167.1 85.5 Q 174.6 91.05 179.4 103.05 A 12.682 12.682 0 0 0 179.572 103.035 Q 184.95 102.525 184.95 97.8 A 8.035 8.035 0 0 0 184.945 97.528 Q 184.713 90.652 172.8 78.225 A 116.992 116.992 0 0 1 172.447 77.855 Q 167.674 72.832 164.832 68.632 A 44.377 44.377 0 0 1 164.641 68.346 A 51.328 51.328 0 0 1 164.507 68.391 Q 160.419 69.741 154.706 70.88 A 130.883 130.883 0 0 1 154.35 70.95 L 151.35 71.55 A 78.287 78.287 0 0 1 151.178 72.469 Q 148.624 85.679 141.892 95.941 A 58.874 58.874 0 0 1 139.8 98.925 Q 131.1 110.55 117.45 110.55 A 29.004 29.004 0 0 1 116.967 110.546 Q 106.963 110.379 101.25 103.275 A 21.463 21.463 0 0 1 100.714 102.58 Q 95.497 95.519 95.402 83.401 A 57.557 57.557 0 0 1 95.4 82.95 A 61.517 61.517 0 0 1 95.405 82.172 Q 95.609 66.066 104.275 54.368 A 44.872 44.872 0 0 1 104.325 54.3 A 35.089 35.089 0 0 1 104.606 53.928 Q 113.496 42.3 129 42.3 Z M 242.7 44.1 L 257.25 44.1 A 15.576 15.576 0 0 1 257.229 44.336 Q 256.88 48.005 254.7 52.8 A 121.745 121.745 0 0 0 253.99 52.727 Q 248.681 52.2 243.9 52.2 L 241.2 52.2 A 1386.297 1386.297 0 0 0 241.093 52.721 Q 234.353 85.459 234.3 93.772 A 20.435 20.435 0 0 0 234.3 93.9 A 19.482 19.482 0 0 0 234.301 94.102 Q 234.344 98.25 236.175 98.25 A 2.064 2.064 0 0 0 236.251 98.249 Q 238.18 98.178 245.926 94.603 A 198.71 198.71 0 0 0 246.15 94.5 L 248.85 99.45 Q 235.664 110.414 224.38 110.548 A 23.493 23.493 0 0 1 224.1 110.55 A 16.428 16.428 0 0 1 223.774 110.547 Q 218.831 110.449 215.588 107.359 A 12.078 12.078 0 0 1 215.475 107.25 A 11.218 11.218 0 0 1 215.116 106.883 Q 212.115 103.667 212.1 98.527 A 17.725 17.725 0 0 1 212.1 98.475 A 47.594 47.594 0 0 1 212.101 98.131 Q 212.139 92.949 213.3 86.51 A 97.949 97.949 0 0 1 213.375 86.1 Q 214.65 79.2 216.9 69.225 A 627.017 627.017 0 0 0 217.005 68.76 Q 219.175 59.106 220.2 53.1 A 263.033 263.033 0 0 0 219.867 53.127 Q 214.568 53.564 211.95 54 A 13.797 13.797 0 0 1 211.923 53.828 Q 211.65 52.056 211.65 49.125 Q 211.65 46.164 212.067 44.246 A 11.905 11.905 0 0 1 212.1 44.1 L 221.55 44.1 A 125.929 125.929 0 0 0 221.66 43.343 Q 222.706 35.975 222.748 29.36 A 87.044 87.044 0 0 0 222.75 28.8 L 222.6 24.15 L 222.6 23.7 A 89.667 89.667 0 0 1 223.33 23.451 Q 234.623 19.65 244.65 19.65 A 21.654 21.654 0 0 1 244.687 19.839 Q 245.232 22.697 245.249 26.875 A 66.441 66.441 0 0 1 245.25 27.15 Q 245.25 31.65 242.7 44.1 Z M 287.55 42.3 L 292.95 42.6 A 11.241 11.241 0 0 1 294.688 41.859 Q 296.479 41.268 298.524 41.251 A 14.616 14.616 0 0 1 298.65 41.25 A 12.287 12.287 0 0 1 299.006 41.255 Q 310.4 41.585 310.499 63.217 A 83.213 83.213 0 0 1 310.5 63.6 Q 316.65 63.3 322.95 61.95 L 325.35 61.35 L 326.25 67.2 Q 321.405 69.255 313.256 70.88 A 130.883 130.883 0 0 1 312.9 70.95 L 309.9 71.55 A 78.287 78.287 0 0 1 309.728 72.469 Q 307.174 85.679 300.442 95.941 A 58.874 58.874 0 0 1 298.35 98.925 Q 289.65 110.55 276 110.55 A 29.004 29.004 0 0 1 275.517 110.546 Q 265.513 110.379 259.8 103.275 A 21.463 21.463 0 0 1 259.264 102.58 Q 254.047 95.519 253.952 83.401 A 57.557 57.557 0 0 1 253.95 82.95 A 61.517 61.517 0 0 1 253.955 82.172 Q 254.159 66.066 262.825 54.368 A 44.872 44.872 0 0 1 262.875 54.3 A 35.089 35.089 0 0 1 263.156 53.928 Q 272.046 42.3 287.55 42.3 Z M 129.75 51.45 L 130.5 49.95 Q 129.934 49.667 129.102 49.651 A 5.248 5.248 0 0 0 129 49.65 A 5.151 5.151 0 0 0 128.889 49.651 Q 128.085 49.668 127.663 49.941 A 1.181 1.181 0 0 0 127.65 49.95 A 7.19 7.19 0 0 0 127.445 50.086 Q 123.868 52.552 120.703 60.925 A 65.711 65.711 0 0 0 120.6 61.2 Q 117.3 70.05 117.3 81.45 Q 117.3 97.554 125.452 97.649 A 8.328 8.328 0 0 0 125.55 97.65 Q 131.809 97.65 136.81 89.654 A 33.762 33.762 0 0 0 136.875 89.55 A 58.434 58.434 0 0 0 137.415 88.661 Q 142.007 80.958 143.85 72.45 Q 127.8 72.45 127.8 60.45 A 23.361 23.361 0 0 1 127.808 59.852 Q 127.918 55.543 129.624 51.726 A 21.157 21.157 0 0 1 129.75 51.45 Z M 288.3 51.45 L 289.05 49.95 Q 288.484 49.667 287.652 49.651 A 5.248 5.248 0 0 0 287.55 49.65 A 5.151 5.151 0 0 0 287.439 49.651 Q 286.635 49.668 286.213 49.941 A 1.181 1.181 0 0 0 286.2 49.95 A 7.19 7.19 0 0 0 285.995 50.086 Q 282.418 52.552 279.253 60.925 A 65.711 65.711 0 0 0 279.15 61.2 Q 275.85 70.05 275.85 81.45 Q 275.85 97.554 284.002 97.649 A 8.328 8.328 0 0 0 284.1 97.65 Q 290.359 97.65 295.36 89.654 A 33.762 33.762 0 0 0 295.425 89.55 A 58.434 58.434 0 0 0 295.965 88.661 Q 300.557 80.958 302.4 72.45 Q 286.35 72.45 286.35 60.45 A 23.361 23.361 0 0 1 286.358 59.852 Q 286.468 55.543 288.174 51.726 A 21.157 21.157 0 0 1 288.3 51.45 Z M 186.75 63.6 L 189 65.55 Q 195.23 60.21 195.299 55.016 A 8.755 8.755 0 0 0 195.3 54.9 A 7.404 7.404 0 0 0 195.296 54.667 Q 195.138 49.65 188.1 49.65 A 16.302 16.302 0 0 0 187.779 49.653 Q 184.801 49.712 182.747 50.868 A 7.777 7.777 0 0 0 182.4 51.075 Q 180.15 52.5 180.15 54.3 A 3.429 3.429 0 0 0 180.156 54.502 Q 180.347 57.733 186.563 63.429 A 64.149 64.149 0 0 0 186.75 63.6 Z" vector-effect="non-scaling-stroke"/></g></svg>
