
<svg width="86" height="91.375" viewBox="0 0 86 91.375" xmlns="http://www.w3.org/2000/svg"><g id="svgGroup" stroke-linecap="round" fill-rule="evenodd" font-size="9pt" stroke="#00b5ad" stroke-width="0.25mm" fill="#00b5ad" style="stroke:#00b5ad;stroke-width:0.25mm;fill:#00b5ad"><path d="M 27.375 19.125 L 27.5 18.25 A 23.824 23.824 0 0 1 28.128 17.895 Q 34.429 14.461 43.54 14.377 A 49.75 49.75 0 0 1 44 14.375 Q 47.875 14.375 49.75 15 Q 50.361 16.222 50.375 20.011 A 48.499 48.499 0 0 1 50.375 20.187 Q 50.375 24.125 44.375 48.375 Q 47.125 49.5 50.625 49.5 A 17.169 17.169 0 0 0 50.998 49.496 Q 56.497 49.377 60.171 45.714 A 14.404 14.404 0 0 0 60.5 45.375 A 26.079 26.079 0 0 0 60.74 45.117 Q 64.008 41.542 65.279 37.456 A 17.729 17.729 0 0 0 65.563 36.437 A 38.457 38.457 0 0 0 65.775 35.53 Q 66.689 31.397 66.746 26.857 A 48.226 48.226 0 0 0 66.75 26.25 Q 66.75 17.463 62.543 12.981 A 12.547 12.547 0 0 0 61.437 11.938 A 12.782 12.782 0 0 0 61.099 11.664 Q 55.754 7.5 44.25 7.5 Q 28.75 7.5 18.5 13.75 A 48.31 48.31 0 0 0 18.182 13.945 Q 8.25 20.107 8.25 26.875 A 8.888 8.888 0 0 0 8.256 27.194 Q 8.373 30.475 10.938 32.563 Q 13.625 34.75 16.5 35.5 A 19.874 19.874 0 0 1 16.429 36.063 Q 15.836 40.297 13.375 44.75 Q 8.625 44.125 4.313 39.75 Q 0 35.375 0 28.25 A 22.51 22.51 0 0 1 0.008 27.655 Q 0.33 15.479 13.891 7.947 A 46.421 46.421 0 0 1 14.25 7.75 A 58.161 58.161 0 0 1 16.05 6.812 Q 29.579 0.054 47.216 0 A 92.882 92.882 0 0 1 47.5 0 A 113.073 113.073 0 0 1 48.091 0.002 Q 66.513 0.098 76.106 6.22 A 26.24 26.24 0 0 1 76.25 6.313 A 23.943 23.943 0 0 1 76.702 6.612 Q 86 12.936 86 25.875 A 43.02 43.02 0 0 1 85.997 26.416 Q 85.783 43.389 72.125 52.125 A 27.972 27.972 0 0 1 69.956 53.4 Q 63.148 57 54.125 57 A 43.311 43.311 0 0 1 53.713 56.998 Q 47.352 56.938 42.75 55 Q 37.529 76.258 36.387 89.109 A 99.511 99.511 0 0 0 36.375 89.25 A 47.707 47.707 0 0 1 35.68 89.445 Q 28.578 91.375 20 91.375 A 23.197 23.197 0 0 1 19.803 91.374 Q 17.835 91.357 16.882 91.003 A 3.152 3.152 0 0 1 16.875 91 Q 17.5 83.125 23.938 58.25 A 693.958 693.958 0 0 0 24.087 57.669 Q 30.35 33.385 30.375 25.935 A 17.732 17.732 0 0 0 30.375 25.875 A 19.569 19.569 0 0 0 30.374 25.728 Q 30.358 23.54 29.848 22.448 A 3.079 3.079 0 0 0 29.813 22.375 A 4.599 4.599 0 0 0 29.776 22.304 Q 29.199 21.198 27.422 19.178 A 49.145 49.145 0 0 0 27.375 19.125 Z" vector-effect="non-scaling-stroke"/></g></svg>